<?xml version="1.0" encoding="utf-8"?>
<!-- Generator: Adobe Illustrator 17.0.0, SVG Export Plug-In . SVG Version: 6.00 Build 0)  -->
<!DOCTYPE svg PUBLIC "-//W3C//DTD SVG 1.1//EN" "http://www.w3.org/Graphics/SVG/1.1/DTD/svg11.dtd">
<svg version="1.1" id="Layer_1" xmlns="http://www.w3.org/2000/svg" xmlns:xlink="http://www.w3.org/1999/xlink" x="0px" y="0px"
	 width="122px" height="49px" viewBox="0 0 122 49" enable-background="new 0 0 122 49" xml:space="preserve">
<g>
	<g>
		<path fill="#788F3A" d="M58.708,0.006c-0.021,5.943-6.834,11.032-1.184,16.085C57.523,16.091,65.766,15.251,58.708,0.006z"/>
		<path fill="#788F3A" d="M73.552,16.218c-4.693-0.247-9.015,4.911-12.759,0.224C60.793,16.442,61.821,9.967,73.552,16.218z"/>
		<path fill="#786542" d="M86.117,44.22c0-1.419,0.416-2.625,1.205-3.702v-3.956c0-3.233-0.613-7.775-5.153-7.775
			c-3.453,0-6.118,2.62-7.033,3.669c-0.482-1.836-1.837-3.669-4.675-3.669c-2.36,0-4.15,1.397-6.73,3.363v-3.277l-0.305-0.086
			c-2.009,0.743-4.062,1.397-6.114,1.966v0.742c0.348-0.087,0.787-0.175,1.397-0.175c0.699,0,1.528,0.044,1.528,2.794v10.64
			c-0.013,0.737-0.755,1.687-1.653,1.687c-1.24,0-1.24-1.24-1.24-2.48v-8.334c0-2.565,0-6.84-6.37-6.84
			c-4.96,0-6.969,3.036-6.969,4.747c0,0.683,0.514,1.881,1.839,1.881c1.112,0,1.924-0.943,1.924-1.839
			c0-0.385-0.215-1.027-0.215-1.668c0-1.326,1.625-2.095,3.036-2.095c1.283,0,3.292,0.471,3.292,3.549v2.608
			c-5.51,2.163-8.979,3.53-10.193,6.12c-0.423-1.728-1.733-2.721-3.446-3.769l-4.616-2.737c-1.582-0.941-1.838-2.179-1.838-3.034
			c0-1.112,0.897-2.779,3.249-2.779c1.881,0,3.805,0.898,4.746,5.259h0.64l-0.17-5.857h-0.47c-0.128,0.172-0.343,0.471-0.728,0.471
			c-0.726,0-2.052-0.855-3.932-0.855c-4.147,0-5.986,2.821-5.986,5.216c0,3.163,2.352,4.744,5.002,6.24l2.48,1.412
			c1.367,0.769,2.223,1.795,2.223,3.163c0,2.437-2.01,3.121-3.463,3.121c-4.19,0-5.313-4.084-6.286-6.133l-4.185-9.548
			c-1.669,0.776-3.165,1.539-4.509,2.284l3.32,8c0.317,0.738,1.003,2.482,1.003,3.327c0,1.954-1.743,2.006-3.697,2.006v1.004h14.61
			c2.112,0,4.651-1.076,5.702-3.274c0.517,2.116,2.42,3.274,4.39,3.274c2.352,0,4.617-1.711,6.2-3.123
			c0.214,3.08,2.009,3.123,2.779,3.123c0.134,0,0.294-0.003,0.476-0.022v0.022h9.696v-0.656c-1.529-0.043-2.97-0.13-2.97-2.269
			V33.637c0-0.219,2.011-2.578,5.024-2.578c2.27,0,3.013,1.704,3.013,4.588v9.478c0,2.84-1.004,2.97-2.97,3.101v0.655h9.782v-0.655
			c-1.789-0.043-3.142-0.175-3.142-3.495V33.723c0.962-1.485,2.444-2.664,4.848-2.664c3.146,0,3.189,2.578,3.189,4.805v9.215
			c0,2.798-0.701,2.884-2.884,3.146v0.656h9.384C88.054,48.436,86.117,46.82,86.117,44.22z M53.882,43.195
			c0,1.282-0.127,1.796-1.453,2.437c-0.385,0.215-1.711,0.77-2.65,0.77c-1.582,0-2.822-1.325-2.822-3.334v-0.086
			c0-1.454,0.47-3.85,6.926-5.985V43.195z M119.337,45.343V35.339c0-5.372-3.102-6.552-5.113-6.552
			c-2.578,0-4.237,1.529-6.377,3.538v-3.452l-0.306-0.086c-2.009,0.743-4.063,1.397-6.028,1.966v0.742
			c0.176-0.087,0.654-0.175,1.267-0.175c0.698,0,1.53,0.044,1.53,2.794v10.834c-0.013,0.736-0.723,1.494-1.621,1.494
			c-1.238,0-1.238-1.24-1.238-2.48v-8.335c0-2.565,0-6.84-6.372-6.84c-4.958,0-6.969,3.036-6.969,4.747
			c0,0.683,0.514,1.881,1.839,1.881c1.113,0,1.926-0.943,1.926-1.839c0-0.385-0.216-1.027-0.216-1.668
			c0-1.326,1.623-2.095,3.036-2.095c1.283,0,3.291,0.471,3.291,3.549v2.608c-6.968,2.736-10.686,4.19-10.686,8.465
			c0,2.862,2.221,4.446,4.53,4.446c2.352,0,4.617-1.711,6.2-3.123c0.215,3.08,2.009,3.123,2.779,3.123h10.051v-0.656
			c-2.269-0.13-2.881-0.829-2.881-2.269V33.681c1.661-1.617,3.015-2.492,4.326-2.492c2.578,0,3.362,1.573,3.362,4.239v9.129
			c0,3.32-1.136,3.537-2.752,3.668v0.656H122v-0.656C119.859,48.051,119.337,47.395,119.337,45.343z M97.984,43.195
			c0,1.282-0.126,1.796-1.452,2.437c-0.385,0.215-1.711,0.77-2.652,0.77c-1.581,0-2.821-1.325-2.821-3.334v-0.086
			c0-1.454,0.47-3.85,6.925-5.985L97.984,43.195L97.984,43.195z M6.866,45.658c0-0.58,0.158-1.32,0.422-2.005l0.325-0.79
			c1.361-2.699,8.044-11.831,38.211-19.693c0,0,9.987-2.436,13.918-6.497c-6.664,4.008-14.843,4.849-14.843,4.849
			c-4.844,0.652-12.767,2.044-20.588,4.814l-5.722-13.052h-1.056L6.548,39.217c-1.003,2.323-2.64,6.178-3.855,7.499
			C1.742,47.719,0.845,47.826,0,47.878v1.003h10.457v-1.003C9.346,47.877,6.866,47.877,6.866,45.658z M16.689,20.785l3.049,7.349
			c-2.739,1.194-5.385,2.581-7.794,4.19L16.689,20.785z"/>
	</g>
</g>
</svg>
